# xmcd
#
# Track frame offsets: 
#        182
#        10425
#        18847
#        24572
#        35350
#        42187
#        49695
#        57205
#        62715
#        70940
#        76485
#        87522
#        99617
#        110247
#        121157
#        127830
#        135565
#        141932
#
# Disc length: 1945 seconds
#
# Revision: 0
# Processed by: cddbd v1.4PL0 Copyright (c) Steve Scherf et al.
# Submitted via: ExactAudioCopy v0.95a3
#
DISCID=f4079712
DTITLE=The Nashville Singers - H. Royce Saltzman, Conductor - An Old F
DTITLE=ashioned Country Christmas - CD 5
DYEAR=1996
DGENRE=Christmas
TTITLE0=Angels We Have Heard on High
TTITLE1=Away in the Manger
TTITLE2=Deck the Halls
TTITLE3=The First Noel
TTITLE4=Here We Come a Wassailing
TTITLE5=It Came Upon the Midnight Clear
TTITLE6=Once in Royal David's City
TTITLE7=Joy to the World
TTITLE8=Wee Three Kings
TTITLE9=While Shepherds Watched Their Flocks By Night
TTITLE10=O COme All Ye Faithful
TTITLE11=O Holy Night
TTITLE12=Hark, The Herald Angels Sing
TTITLE13=Silent Night
TTITLE14=God Rest Ye Merry Gentlemen
TTITLE15=O Christmas Tree
TTITLE16=Good Christian Men Rejoice
TTITLE17=Good King Wensceslas
EXTD=
EXTT0=
EXTT1=
EXTT2=
EXTT3=
EXTT4=
EXTT5=
EXTT6=
EXTT7=
EXTT8=
EXTT9=
EXTT10=
EXTT11=
EXTT12=
EXTT13=
EXTT14=
EXTT15=
EXTT16=
EXTT17=
PLAYORDER=
